:SAMPLES-PER-SECOND 30
:FULLY-SPECIFIED
:DEGREES
1
root  74.9392 40.3922 -7.59929 -122.929 -88.6066 118.747
RightUpLeg  2.4841 -8.93975 -6.82273
RightLeg  6.52504 -0.976947 3.28876
RightFoot  -3.08807 0.0392806 -0.895786
RightToes  5.82063e-011 0 -3.6325e-017
Spine  1.27066 -0.458813 -0.740816
Spine1  8.35169 -0.497849 0.469442
HEad  -1.04099 2.58395 -0.692079
LeftShoulder1  1.82258 -4.72621 -15.2787
LeftArm  -19.8523 9.94092 -3.06567
LeftForeArm  6.622 0.335263 -0.346327
LeftHand  -0.244104 0.0205437 5.32207
RightShoulder  0.815186 1.27538 9.75059
RightArm  -28.5901 -3.28795 6.15434
RightForeArm  2.69617 4.08739 0.79631
RightHand  -1.71737 5.91859 -17.8
LeftUpLeg  4.38927 5.79119 2.8901
LeftLeg  2.13044 18.3658 -4.23253
LeftFoot  -2.49785 0.0289515 -0.0950034
LeftToes  -1.33699e-010 -8.10125e-011 -3.35536e-011
2
root  74.9376 40.3922 -7.5957 -123.096 -88.6067 118.935
RightUpLeg  2.47345 -8.93975 -6.82273
RightLeg  6.50967 -0.982436 3.28945
RightFoot  -3.1321 0.0340584 -0.814646
RightToes  5.82063e-011 0 -3.6325e-017
Spine  1.25026 -0.526174 -0.651494
Spine1  8.40137 -0.520463 0.275141
HEad  -2.64984 3.02293 -0.383636
LeftShoulder1  1.77304 -4.57919 -15.0477
LeftArm  -19.8944 9.9835 -3.24145
LeftForeArm  6.69759 0.245593 -0.342725
LeftHand  -0.244104 0.0205437 5.32207
RightShoulder  0.846634 1.42861 9.87243
RightArm  -28.6833 -3.31098 6.11368
RightForeArm  2.66685 4.07102 0.760444
RightHand  -1.7382 5.97003 -17.9309
LeftUpLeg  4.37485 5.79279 2.89014
LeftLeg  2.12204 18.3553 -4.24184
LeftFoot  -2.48189 0.0304258 -0.117915
LeftToes  -1.33699e-010 -8.10125e-011 -3.35536e-011
3
root  74.9317 40.3922 -7.58808 -123.286 -88.6104 119.171
RightUpLeg  2.44497 -8.94047 -6.82384
RightLeg  6.47616 -0.972017 3.28891
RightFoot  -3.13322 0.0309714 -0.766685
RightToes  5.82063e-011 0 -3.6325e-017
Spine  1.26425 -0.585139 -0.68384
Spine1  8.38269 -0.584488 0.277009
HEad  -3.80913 3.46376 -0.162921
LeftShoulder1  1.71923 -4.37286 -14.9266
LeftArm  -19.9284 9.99896 -3.40017
LeftForeArm  6.79882 0.125781 -0.349782
LeftHand  -0.244104 0.0205437 5.32207
RightShoulder  0.878524 1.62681 9.82739
RightArm  -28.893 -3.39839 6.17197
RightForeArm  2.8068 4.03259 0.662665
RightHand  -1.71058 5.75932 -17.9743
LeftUpLeg  4.335 5.79229 2.88338
LeftLeg  2.11905 18.3626 -4.24691
LeftFoot  -2.47352 0.0303919 -0.117388
LeftToes  -1.33699e-010 -8.10125e-011 -3.35536e-011
4
root  74.9202 40.3922 -7.57886 -122.153 -88.6304 118.092
RightUpLeg  2.4211 -8.95043 -6.83331
RightLeg  6.44905 -0.994042 3.29845
RightFoot  -3.09135 0.0303871 -0.757608
RightToes  5.82063e-011 0 -3.6325e-017
Spine  1.25958 -0.600611 -0.800807
Spine1  8.35211 -0.642075 0.440829
HEad  -3.46139 3.63876 -0.168101
LeftShoulder1  1.68956 -4.22178 -14.97
LeftArm  -19.9488 9.89184 -3.48522
LeftForeArm  6.87249 0.0552657 -0.371962
LeftHand  -0.244104 0.0205437 5.32207
RightShoulder  0.886987 1.70033 9.73903
RightArm  -28.9614 -3.45925 6.22232
RightForeArm  2.8007 4.00119 0.615045
RightHand  -1.59741 5.0885 -17.8526
LeftUpLeg  4.27549 5.77066 2.85721
LeftLeg  2.14592 18.3613 -4.22511
LeftFoot  -2.49121 0.0285488 -0.0887453
LeftToes  -1.33699e-010 -8.10125e-011 -3.35536e-011
5
root  74.9067 40.3922 -7.57022 -119.86 -88.6652 115.821
RightUpLeg  2.43691 -8.98378 -6.86221
RightLeg  6.44939 -1.02617 3.32378
RightFoot  -3.10288 0.0307834 -0.763765
RightToes  5.82063e-011 0 -3.6325e-017
Spine  1.22977 -0.626604 -0.801059
Spine1  8.38431 -0.659031 0.404289
HEad  -3.35026 3.65121 -0.0504965
LeftShoulder1  1.67059 -4.14601 -14.9343
LeftArm  -19.9412 9.78113 -3.57392
LeftForeArm  6.88363 -0.0128473 -0.411002
LeftHand  -0.244104 0.0205437 5.32207
RightShoulder  0.891198 1.68392 9.88935
RightArm  -28.8295 -3.38947 6.14856
RightForeArm  2.47591 3.94837 0.658095
RightHand  -1.49636 4.46213 -17.7767
LeftUpLeg  4.23969 5.75472 2.84052
LeftLeg  2.2026 18.315 -4.19854
LeftFoot  -2.52088 0.0273744 -0.0704947
LeftToes  -1.33699e-010 -8.10125e-011 -3.35536e-011
6
root  74.8951 40.3922 -7.56288 -117.952 -88.6805 113.881
RightUpLeg  2.50485 -9.02286 -6.9091
RightLeg  6.45166 -1.00407 3.3507
RightFoot  -3.17169 0.0311165 -0.768939
RightToes  5.82063e-011 0 -3.6325e-017
Spine  1.22271 -0.692047 -0.733313
Spine1  8.4827 -0.681199 0.222095
HEad  -3.38303 3.67877 0.100069
LeftShoulder1  1.66169 -4.12158 -14.8831
LeftArm  -19.8737 9.82162 -3.58673
LeftForeArm  6.79903 -0.133948 -0.46167
LeftHand  -0.244104 0.0205437 5.32207
RightShoulder  0.905746 1.71832 10.0741
RightArm  -28.789 -3.26651 6.14659
RightForeArm  2.37013 3.86959 0.673729
RightHand  -1.49808 4.45915 -17.8018
LeftUpLeg  4.27369 5.75421 2.83168
LeftLeg  2.2349 18.2723 -4.19513
LeftFoot  -2.54645 0.0277043 -0.0756215
LeftToes  -1.33699e-010 -8.10125e-011 -3.35536e-011
7
root  74.884 40.3922 -7.5564 -116.66 -88.6638 112.558
RightUpLeg  2.56987 -9.05946 -6.96987
RightLeg  6.43486 -0.965718 3.36563
RightFoot  -3.19407 0.030875 -0.765187
RightToes  5.82063e-011 0 -3.6325e-017
Spine  1.21771 -0.74157 -0.797398
Spine1  8.62363 -0.73742 0.243401
HEad  -3.43746 3.81923 0.0950772
LeftShoulder1  1.68151 -4.1528 -15.0684
LeftArm  -19.7748 9.91488 -3.42319
LeftForeArm  6.69337 -0.229808 -0.50352
LeftHand  -0.244104 0.0205437 5.32207
RightShoulder  0.906272 1.7443 9.98816
RightArm  -28.9761 -3.19007 6.36069
RightForeArm  2.97473 3.8215 0.589229
RightHand  -1.55645 4.89028 -17.7311
LeftUpLeg  4.33381 5.72095 2.78229
LeftLeg  2.20756 18.2974 -4.18827
LeftFoot  -2.56851 0.028348 -0.0856248
LeftToes  -1.33699e-010 -8.10125e-011 -3.35536e-011
8
root  74.8707 40.3919 -7.55073 -115.664 -88.643 111.587
RightUpLeg  2.56026 -9.08643 -7.012
RightLeg  6.4456 -0.967328 3.36674
RightFoot  -3.16218 0.0336101 -0.807682
RightToes  5.82063e-011 0 -3.6325e-017
Spine  1.21401 -0.694439 -0.921155
Spine1  8.69377 -0.720115 0.37999
HEad  -3.46353 3.81855 0.0502569
LeftShoulder1  1.72531 -4.28023 -15.2925
LeftArm  -19.7509 9.84954 -3.28896
LeftForeArm  6.74555 -0.148082 -0.501239
LeftHand  -0.244104 0.0205437 5.32207
RightShoulder  0.86354 1.51122 9.93533
RightArm  -29.105 -3.07042 6.49603
RightForeArm  3.80052 3.81917 0.514319
RightHand  -1.58522 5.19212 -17.554
LeftUpLeg  4.34135 5.65438 2.70724
LeftLeg  2.16745 18.3525 -4.15844
LeftFoot  -2.5904 0.0295631 -0.104509
LeftToes  -1.33699e-010 -8.10125e-011 -3.35536e-011
9
root  74.8551 40.3904 -7.5454 -116.513 -88.6355 112.461
RightUpLeg  2.52422 -9.08023 -7.00277
RightLeg  6.50562 -0.94731 3.34966
RightFoot  -3.19176 0.0404818 -0.914451
RightToes  5.82063e-011 0 -3.6325e-017
Spine  1.35144 -0.543373 -0.830759
Spine1  8.51692 -0.508731 0.176454
HEad  -3.46879 3.49244 0.230467
LeftShoulder1  1.75423 -4.49757 -15.036
LeftArm  -19.8879 9.66033 -3.52206
LeftForeArm  7.01665 0.131059 -0.424659
LeftHand  -0.244104 0.0205437 5.32207
RightShoulder  0.799135 1.02637 10.4049
RightArm  -28.9602 -2.88023 6.22247
RightForeArm  3.95844 3.84003 0.560897
RightHand  -1.60383 5.33588 -17.5255
LeftUpLeg  4.34178 5.64303 2.6982
LeftLeg  2.17214 18.364 -4.15094
LeftFoot  -2.62785 0.0332704 -0.162123
LeftToes  -1.33699e-010 -8.10125e-011 -3.35536e-011
10
root  74.8362 40.3879 -7.53675 -118.722 -88.6358 114.627
RightUpLeg  2.58381 -9.06536 -6.99213
RightLeg  6.52926 -0.87982 3.33776
RightFoot  -3.29019 0.0420588 -0.938956
RightToes  5.82063e-011 0 -3.6325e-017
Spine  1.6658 -0.38459 -0.566326
Spine1  8.14081 -0.219707 -0.309914
HEad  -3.39389 3.11581 0.51817
LeftShoulder1  1.75263 -4.72025 -14.3688
LeftArm  -20.1266 9.57412 -4.03635
LeftForeArm  7.31943 0.413593 -0.299812
LeftHand  -0.244104 0.0205437 5.32207
RightShoulder  0.768404 0.692742 11.1346
RightArm  -28.7369 -2.88275 5.71322
RightForeArm  3.52338 3.92328 0.6632
RightHand  -1.65925 5.62857 -17.6511
LeftUpLeg  4.38808 5.6761 2.73656
LeftLeg  2.27748 18.3565 -4.13351
LeftFoot  -2.76213 0.038512 -0.24358
LeftToes  -1.33699e-010 -8.10125e-011 -3.35536e-011
11
root  74.8144 40.3818 -7.51848 -116.093 -88.6574 112
RightUpLeg  2.64623 -9.14579 -7.08955
RightLeg  6.52281 -0.875233 3.40513
RightFoot  -3.38213 0.0279564 -0.736012
RightToes  5.82063e-011 0 -3.6325e-017
Spine  1.8627 -0.340664 -0.507449
Spine1  7.87535 -0.136496 -0.447187
HEad  -3.22992 2.9938 0.542302
LeftShoulder1  1.76035 -4.86942 -14.0558
LeftArm  -20.2729 9.66576 -4.30959
LeftForeArm  7.42789 0.447743 -0.225542
LeftHand  -0.244104 0.0205437 5.32207
RightShoulder  0.789064 0.74728 11.4205
RightArm  -28.6356 -3.16094 5.37292
RightForeArm  3.33954 4.03083 0.696517
RightHand  -1.70028 5.90156 -17.654
LeftUpLeg  4.22842 5.56177 2.62688
LeftLeg  2.69668 18.4096 -3.89006
LeftFoot  -3.15429 0.0398768 -0.26479
LeftToes  -1.33699e-010 -8.10125e-011 -3.35536e-011
12
root  74.798 40.3593 -7.48602 -105.665 -88.6591 101.803
RightUpLeg  2.36771 -9.37453 -7.32628
RightLeg  6.80575 -0.867878 3.53815
RightFoot  -3.69919 -0.00912733 -0.244401
RightToes  5.82063e-011 0 -3.6325e-017
Spine  1.7506 -0.432857 -0.816781
Spine1  7.78732 -0.333954 -0.0334964
HEad  -3.07853 3.10813 0.255137
LeftShoulder1  1.80514 -4.92666 -14.4826
LeftArm  -20.2975 9.86188 -4.12365
LeftForeArm  7.35644 0.126578 -0.233128
LeftHand  -0.244104 0.0205437 5.32207
RightShoulder  0.803248 0.883654 11.1376
RightArm  -28.6934 -3.24709 5.42837
RightForeArm  3.44084 3.93198 0.634176
RightHand  -1.68572 5.78309 -17.6887
LeftUpLeg  3.48681 5.28716 2.24039
LeftLeg  3.75736 18.4736 -3.25996
LeftFoot  -3.96637 0.0342538 -0.15451
LeftToes  -1.33699e-010 -8.10125e-011 -3.35536e-011
